{
    "asset" : {
        "generator" : "Khronos glTF Blender I/O v1.8.19",
        "version" : "2.0"
    },
    "scene" : 0,
    "scenes" : [
        {
            "name" : "Scene",
            "nodes" : [
                0,
                1
            ]
        }
    ],
    "nodes" : [
        {
            "mesh" : 0,
            "name" : "Cube.112",
            "scale" : [
                0.9598399996757507,
                18.350765228271484,
                29.56305694580078
            ]
        },
        {
            "mesh" : 1,
            "name" : "Cube",
            "scale" : [
                0.15000000596046448,
                2.7576982975006104,
                4.607800006866455
            ]
        }
    ],
    "materials" : [
        {
            "doubleSided" : true,
            "name" : "POP-UP.001",
            "pbrMetallicRoughness" : {
                "baseColorTexture" : {
                    "index" : 0
                },
                "metallicFactor" : 0,
                "roughnessFactor" : 0.5
            }
        },
        {
            "doubleSided" : true,
            "name" : "POP-UP.002",
            "pbrMetallicRoughness" : {
                "baseColorTexture" : {
                    "index" : 1
                },
                "metallicFactor" : 0,
                "roughnessFactor" : 0.5
            }
        }
    ],
    "meshes" : [
        {
            "name" : "Cube.001",
            "primitives" : [
                {
                    "attributes" : {
                        "POSITION" : 0,
                        "NORMAL" : 1,
                        "TEXCOORD_0" : 2
                    },
                    "indices" : 3,
                    "material" : 0
                }
            ]
        },
        {
            "name" : "Cube",
            "primitives" : [
                {
                    "attributes" : {
                        "POSITION" : 4,
                        "NORMAL" : 5,
                        "TEXCOORD_0" : 6
                    },
                    "indices" : 7,
                    "material" : 0
                },
                {
                    "attributes" : {
                        "POSITION" : 8,
                        "NORMAL" : 9,
                        "TEXCOORD_0" : 10
                    },
                    "indices" : 11,
                    "material" : 1
                }
            ]
        }
    ],
    "textures" : [
        {
            "sampler" : 0,
            "source" : 0
        },
        {
            "sampler" : 0,
            "source" : 1
        }
    ],
    "images" : [
        {
            "bufferView" : 4,
            "mimeType" : "image/png",
            "name" : "Popup_outlined"
        },
        {
            "bufferView" : 13,
            "mimeType" : "image/png",
            "name" : "Popup_outlined-back"
        }
    ],
    "accessors" : [
        {
            "bufferView" : 0,
            "componentType" : 5126,
            "count" : 1152,
            "max" : [
                0.15399999916553497,
                0.15399999916553497,
                0.15399999916553497
            ],
            "min" : [
                -0.15399999916553497,
                -0.15399999916553497,
                -0.15399999916553497
            ],
            "type" : "VEC3"
        },
        {
            "bufferView" : 1,
            "componentType" : 5126,
            "count" : 1152,
            "type" : "VEC3"
        },
        {
            "bufferView" : 2,
            "componentType" : 5126,
            "count" : 1152,
            "type" : "VEC2"
        },
        {
            "bufferView" : 3,
            "componentType" : 5123,
            "count" : 2292,
            "type" : "SCALAR"
        },
        {
            "bufferView" : 5,
            "componentType" : 5126,
            "count" : 520,
            "max" : [
                1,
                1,
                1
            ],
            "min" : [
                -1,
                -1,
                -1
            ],
            "type" : "VEC3"
        },
        {
            "bufferView" : 6,
            "componentType" : 5126,
            "count" : 520,
            "type" : "VEC3"
        },
        {
            "bufferView" : 7,
            "componentType" : 5126,
            "count" : 520,
            "type" : "VEC2"
        },
        {
            "bufferView" : 8,
            "componentType" : 5123,
            "count" : 930,
            "type" : "SCALAR"
        },
        {
            "bufferView" : 9,
            "componentType" : 5126,
            "count" : 104,
            "max" : [
                -1,
                1,
                1
            ],
            "min" : [
                -1,
                -1,
                -1
            ],
            "type" : "VEC3"
        },
        {
            "bufferView" : 10,
            "componentType" : 5126,
            "count" : 104,
            "type" : "VEC3"
        },
        {
            "bufferView" : 11,
            "componentType" : 5126,
            "count" : 104,
            "type" : "VEC2"
        },
        {
            "bufferView" : 12,
            "componentType" : 5123,
            "count" : 306,
            "type" : "SCALAR"
        }
    ],
    "bufferViews" : [
        {
            "buffer" : 0,
            "byteLength" : 13824,
            "byteOffset" : 0
        },
        {
            "buffer" : 0,
            "byteLength" : 13824,
            "byteOffset" : 13824
        },
        {
            "buffer" : 0,
            "byteLength" : 9216,
            "byteOffset" : 27648
        },
        {
            "buffer" : 0,
            "byteLength" : 4584,
            "byteOffset" : 36864
        },
        {
            "buffer" : 0,
            "byteLength" : 3378,
            "byteOffset" : 41448
        },
        {
            "buffer" : 0,
            "byteLength" : 6240,
            "byteOffset" : 44828
        },
        {
            "buffer" : 0,
            "byteLength" : 6240,
            "byteOffset" : 51068
        },
        {
            "buffer" : 0,
            "byteLength" : 4160,
            "byteOffset" : 57308
        },
        {
            "buffer" : 0,
            "byteLength" : 1860,
            "byteOffset" : 61468
        },
        {
            "buffer" : 0,
            "byteLength" : 1248,
            "byteOffset" : 63328
        },
        {
            "buffer" : 0,
            "byteLength" : 1248,
            "byteOffset" : 64576
        },
        {
            "buffer" : 0,
            "byteLength" : 832,
            "byteOffset" : 65824
        },
        {
            "buffer" : 0,
            "byteLength" : 612,
            "byteOffset" : 66656
        },
        {
            "buffer" : 0,
            "byteLength" : 2532,
            "byteOffset" : 67268
        }
    ],
    "samplers" : [
        {
            "magFilter" : 9729,
            "minFilter" : 9987
        }
    ],
    "buffers" : [
        {
            "byteLength" : 69800,
            "uri" : "data:application/octet-stream;base64,"
        }
    ]
}
