{"accessors" : [{"bufferView" : 0, "byteOffset" : 0, "componentType" : 5123, "count" : 2292, "type" : "SCALAR", "max" : [1911], "min" : [0]}, {"bufferView" : 1, "byteOffset" : 0, "componentType" : 5126, "count" : 1912, "type" : "VEC3", "max" : [0.15399999916553497, 0.15399999916553497, 0.15399999916553497], "min" : [-0.15399999916553497, -0.15399999916553497, -0.15399999916553497], "name" : "POSITION"}, {"bufferView" : 1, "byteOffset" : 12, "componentType" : 5126, "count" : 1912, "type" : "VEC3", "max" : [1.0000044107437134, 1.0000042915344238, 1.0000042915344238], "min" : [-1.0000044107437134, -1.0000042915344238, -1.0000042915344238], "name" : "NORMAL"}, {"bufferView" : 1, "byteOffset" : 24, "componentType" : 5126, "count" : 1912, "type" : "VEC2", "max" : [1.0007569789886475, 1], "min" : [-0.0007569247391074896, 0], "name" : "TEXCOORD_0"}], "asset" : {"generator" : "Aspose.3D 22.5.1", "version" : "2.0"}, "buffers" : [{"uri" : "data:application/octet-stream;base64,", "byteLength" : 77936}], "bufferViews" : [{"buffer" : 0, "byteOffset" : 0, "byteLength" : 4584, "target" : 34963}, {"buffer" : 0, "byteOffset" : 4588, "byteLength" : 73344, "byteStride" : 32, "target" : 34962}], "materials" : [{"name" : "POP-UP.001", "pbrMetallicRoughness" : {"baseColorFactor" : [1, 1, 1, 1], "metallicFactor" : 1, "roughnessFactor" : 1}, "emissiveFactor" : [0, 0, 0], "alphaMode" : "OPAQUE", "doubleSided" : true}], "meshes" : [{"primitives" : [{"attributes" : {"POSITION" : 1, "NORMAL" : 2, "TEXCOORD_0" : 3}, "indices" : 0, "material" : 0, "mode" : 4}]}], "nodes" : [{"matrix" : [0.9598399996757507, 0, 0, 0, 0, 18.350765228271484, 0, 0, 0, 0, 29.56305694580078, 0, 0, 0, 0, 1], "mesh" : 0, "name" : "Cube.112"}], "scene" : 0, "scenes" : [{"nodes" : [0]}]}