<svg xmlns="http://www.w3.org/2000/svg" xmlns:xlink="http://www.w3.org/1999/xlink" width="30.535" height="30.535" viewBox="0 0 30.535 30.535">
  <defs>
    <clipPath id="clip-path">
      <rect id="Rectangle_370" data-name="Rectangle 370" width="19.564" height="19.268" transform="translate(-2 -2)" fill="#fff" stroke="#fff" stroke-width="1"/>
    </clipPath>
  </defs>
  <g id="availability" transform="translate(-15356 -15404)">
    <g id="Tracé_1047" data-name="Tracé 1047" transform="translate(15356 15404)" fill="rgba(255,255,255,0)">
      <path d="M 15.267578125 29.53515815734863 C 11.45656776428223 29.53515815734863 7.873668193817139 28.05106735229492 5.178878307342529 25.35627746582031 C 2.484088182449341 22.6614875793457 0.999998152256012 19.07858848571777 0.999998152256012 15.267578125 C 0.999998152256012 11.45656776428223 2.484088182449341 7.873668193817139 5.178878307342529 5.178878307342529 C 7.873668193817139 2.484088182449341 11.45656776428223 0.999998152256012 15.267578125 0.999998152256012 C 19.07858848571777 0.999998152256012 22.6614875793457 2.484088182449341 25.35627746582031 5.178878307342529 C 28.05106735229492 7.873668193817139 29.53515815734863 11.45656776428223 29.53515815734863 15.267578125 C 29.53515815734863 19.07858848571777 28.05106735229492 22.6614875793457 25.35627746582031 25.35627746582031 C 22.6614875793457 28.05106735229492 19.07858848571777 29.53515815734863 15.267578125 29.53515815734863 Z" stroke="none"/>
      <path d="M 15.267578125 1.999998092651367 C 11.72367858886719 1.999998092651367 8.391897201538086 3.380067825317383 5.885978698730469 5.885978698730469 C 3.380067825317383 8.391897201538086 1.999998092651367 11.72367858886719 1.999998092651367 15.267578125 C 1.999998092651367 18.81147766113281 3.380067825317383 22.14325714111328 5.885978698730469 24.64917755126953 C 8.391897201538086 27.15508842468262 11.72367858886719 28.53515815734863 15.267578125 28.53515815734863 C 18.81147766113281 28.53515815734863 22.14325714111328 27.15508842468262 24.64917755126953 24.64917755126953 C 27.15508842468262 22.14325714111328 28.53515815734863 18.81147766113281 28.53515815734863 15.267578125 C 28.53515815734863 11.72367858886719 27.15508842468262 8.391897201538086 24.64917755126953 5.885978698730469 C 22.14325714111328 3.380067825317383 18.81147766113281 1.999998092651367 15.267578125 1.999998092651367 M 15.267578125 -1.9073486328125e-06 C 23.69962882995605 -1.9073486328125e-06 30.53515815734863 6.835527420043945 30.53515815734863 15.267578125 C 30.53515815734863 23.69962882995605 23.69962882995605 30.53515815734863 15.267578125 30.53515815734863 C 6.835527420043945 30.53515815734863 -1.9073486328125e-06 23.69962882995605 -1.9073486328125e-06 15.267578125 C -1.9073486328125e-06 6.835527420043945 6.835527420043945 -1.9073486328125e-06 15.267578125 -1.9073486328125e-06 Z" stroke="none" fill="#fff"/>
    </g>
    <g id="Groupe_379" data-name="Groupe 379" transform="translate(15362.22 15411.634)">
      <g id="Groupe_309" data-name="Groupe 309" clip-path="url(#clip-path)">
        <path id="Tracé_800" data-name="Tracé 800" d="M110.455,4.952l1.08-1.288a.3.3,0,0,0-.036-.417l-.871-.731a.3.3,0,0,0-.417.037l-1.006,1.2a6.33,6.33,0,0,0-2.881-1.164V1.526h1.285a.261.261,0,0,0,.261-.262v-1A.261.261,0,0,0,107.61,0h-4.3a.261.261,0,0,0-.261.261v1a.261.261,0,0,0,.261.262h1.285V2.584a6.35,6.35,0,0,0-2.885,1.162l-1-1.193a.3.3,0,0,0-.417-.037l-.871.731a.3.3,0,0,0-.037.417l1.077,1.283a6.382,6.382,0,0,0-.87,1.467.517.517,0,1,0,.953.4,5.336,5.336,0,1,1,2.478,6.827.517.517,0,0,0-.474.919,6.367,6.367,0,0,0,7.91-9.611Z" transform="translate(-96.267)" fill="#fff" stroke="#fff" stroke-width="1"/>
        <path id="Tracé_801" data-name="Tracé 801" d="M280.329,207.308c1.742-2.073,1.846-2.672,1.728-2.79s-.717-.014-2.789,1.729c-.986.829-.676,1.3-.46,1.52s.692.527,1.521-.459Z" transform="translate(-270.044 -198.215)" fill="#fff" stroke="#fff" stroke-width="1"/>
        <path id="Tracé_802" data-name="Tracé 802" d="M6.088,257.3a.443.443,0,0,0-.443-.443H.443a.443.443,0,0,0,0,.887h5.2A.443.443,0,0,0,6.088,257.3Z" transform="translate(0 -248.981)" fill="#fff" stroke="#fff" stroke-width="1"/>
        <path id="Tracé_803" data-name="Tracé 803" d="M74.84,329.957H71.828a.443.443,0,1,0,0,.887H74.84a.443.443,0,1,0,0-.887" transform="translate(-69.195 -319.841)" fill="#fff" stroke="#fff" stroke-width="1"/>
        <path id="Tracé_804" data-name="Tracé 804" d="M32.8,403.077H28.456a.443.443,0,1,0,0,.887H32.8a.443.443,0,1,0,0-.887Z" transform="translate(-27.153 -390.719)" fill="#fff" stroke="#fff" stroke-width="1"/>
      </g>
    </g>
  </g>
</svg>
