<svg xmlns="http://www.w3.org/2000/svg" width="30.535" height="30.535" viewBox="0 0 30.535 30.535">
  <g id="profile" transform="translate(-18049.516 -16397.102)">
    <g id="Groupe_436" data-name="Groupe 436" transform="translate(2693.516 993.102)">
      <g id="Ellipse_118" data-name="Ellipse 118" transform="translate(15356 15404)" fill="rgba(255,255,255,0)" stroke="#fff" stroke-width="2">
        <circle cx="15.268" cy="15.268" r="15.268" stroke="none"/>
        <circle cx="15.268" cy="15.268" r="14.268" fill="none"/>
      </g>
    </g>
    <g id="Ellipse_130" data-name="Ellipse 130" transform="translate(18059.115 16403.418)" fill="none" stroke="#fff" stroke-width="2.4">
      <ellipse cx="5.67" cy="5.671" rx="5.67" ry="5.671" stroke="none"/>
      <ellipse cx="5.67" cy="5.671" rx="4.47" ry="4.471" fill="none"/>
    </g>
    <g id="Tracé_1046" data-name="Tracé 1046" transform="translate(18058.064 16413.713)" fill="none">
      <path d="M6.72,0c3.711,0,6.72,2.4,6.72,5.368S0,8.332,0,5.368,3.009,0,6.72,0Z" stroke="none"/>
      <path d="M 6.720234870910645 2.400002956390381 C 5.485584735870361 2.400002956390381 4.299514770507812 2.781773090362549 3.466144561767578 3.447422981262207 C 3.17813777923584 3.677470207214355 2.748978614807129 4.092890739440918 2.533543586730957 4.657099723815918 C 3.260950088500977 4.903745174407959 4.678808212280273 5.19122314453125 6.720224857330322 5.19122314453125 C 8.761648178100586 5.19122314453125 10.17951011657715 4.903744697570801 10.90691757202148 4.657099723815918 C 10.69148254394531 4.092889308929443 10.26232242584229 3.677470207214355 9.97431468963623 3.447422981262207 C 9.140954971313477 2.781773090362549 7.954885005950928 2.400002956390381 6.720234870910645 2.400002956390381 M 6.720234870910645 2.86102294921875e-06 C 10.43171501159668 2.86102294921875e-06 13.44046497344971 2.403253078460693 13.44046497344971 5.36780309677124 C 13.44046497344971 8.332363128662109 -4.76837158203125e-06 8.332363128662109 -4.76837158203125e-06 5.36780309677124 C -4.76837158203125e-06 2.403253078460693 3.008754730224609 2.86102294921875e-06 6.720234870910645 2.86102294921875e-06 Z" stroke="none" fill="#fff"/>
    </g>
  </g>
</svg>
