<?xml version="1.0" standalone="no"?>
<!DOCTYPE svg PUBLIC "-//W3C//DTD SVG 20010904//EN"
 "http://www.w3.org/TR/2001/REC-SVG-20010904/DTD/svg10.dtd">
<svg version="1.0" xmlns="http://www.w3.org/2000/svg"
 width="500.000000pt" height="500.000000pt" viewBox="0 0 500.000000 500.000000"
 preserveAspectRatio="xMidYMid meet">
<metadata>
Created by potrace 1.14, written by Peter Selinger 2001-2017
</metadata>
<g transform="translate(0.000000,500.000000) scale(0.100000,-0.100000)"
fill="#000000" stroke="none">
<path d="M2215 4984 c-169 -17 -249 -28 -324 -45 -359 -79 -651 -208 -914
-401 -504 -373 -833 -902 -945 -1518 -23 -131 -26 -169 -26 -400 0 -223 3
-271 23 -383 57 -321 164 -610 318 -859 108 -175 204 -291 432 -522 353 -357
487 -461 786 -610 255 -127 397 -171 720 -225 154 -26 535 -29 666 -6 46 8
113 20 149 26 91 15 247 61 325 94 17 7 66 27 110 45 157 64 348 170 475 264
30 23 57 43 60 47 3 3 28 22 55 43 186 140 445 446 561 662 20 38 46 87 58
109 33 60 101 229 132 325 14 47 30 94 34 105 5 11 11 34 14 50 3 17 12 62 21
100 21 92 33 197 45 380 12 205 -10 439 -62 650 -11 44 -24 97 -29 117 -18 73
-81 235 -139 354 -88 184 -179 325 -315 494 -90 110 -489 510 -590 590 -324
257 -721 430 -1135 496 -92 14 -423 26 -505 18z m400 -265 c212 -22 461 -93
670 -193 756 -360 1232 -1145 1202 -1981 -3 -88 -13 -203 -22 -255 -154 -924
-855 -1621 -1779 -1767 -155 -25 -521 -24 -656 0 -464 86 -862 295 -1175 618
-633 654 -781 1624 -370 2434 110 218 228 377 411 556 462 449 1065 656 1719
588z"/>
</g>
</svg>
