<svg xmlns="http://www.w3.org/2000/svg" width="67.2" height="67.197" viewBox="0 0 67.2 67.197">
  <g id="noun-validate-3574487" transform="translate(-212.63 -151.11)">
    <path id="Tracé_813" data-name="Tracé 813" d="M279.83,184.712a33.6,33.6,0,1,0-33.6,33.6,33.6,33.6,0,0,0,33.6-33.6m-33.6,25.2a25.2,25.2,0,1,1,25.2-25.2,25.233,25.233,0,0,1-25.2,25.2"/>
    <path id="Tracé_814" data-name="Tracé 814" d="M277.51,236.514c.621-.625,1.231-1.244,1.846-1.859q3.956-3.956,7.911-7.91,2.552-2.552,5.1-5.109a3.3,3.3,0,1,1,4.808,4.509c-1.224,1.253-2.476,2.484-3.715,3.723q-4.784,4.784-9.563,9.566-2.015,2.015-4.031,4.029a3.274,3.274,0,0,1-4.742,0q-3.4-3.378-6.772-6.778a3.3,3.3,0,0,1,1.833-5.562,3.153,3.153,0,0,1,2.857.941q2.152,2.144,4.3,4.294l.167.155" transform="translate(-36.513 -46.321)"/>
  </g>
</svg>
