<svg xmlns="http://www.w3.org/2000/svg" width="243" height="146" viewBox="0 0 243 146">
  <g id="Groupe_327" data-name="Groupe 327" transform="translate(-66 -232)">
    <g id="Rectangle_359" data-name="Rectangle 359" transform="translate(66 232)" fill="#fff" stroke="#000" stroke-width="3">
      <rect width="243" height="146" rx="16" stroke="none"/>
      <rect x="1.5" y="1.5" width="240" height="143" rx="14.5" fill="none"/>
    </g>
    <g id="Groupe_269" data-name="Groupe 269" transform="translate(0.332 -2.668)">
      <g id="Ellipse_105" data-name="Ellipse 105" transform="translate(166.668 286.668)" fill="#fff" stroke="#000" stroke-linecap="round" stroke-linejoin="round" stroke-width="2">
        <circle cx="21" cy="21" r="21" stroke="none"/>
        <circle cx="21" cy="21" r="20" fill="none"/>
      </g>
      <g id="Polygone_8" data-name="Polygone 8" transform="translate(197.254 299.503) rotate(90)" fill="#fff" stroke-linecap="round" stroke-linejoin="round">
        <path d="M 15.31858062744141 13.91154670715332 L 1.723180651664734 13.91154670715332 L 8.52060604095459 2.016046762466431 L 8.521150588989258 2.016046762466431 L 15.31859111785889 13.91154670715332 C 15.31858921051025 13.91154479980469 15.31858825683594 13.911545753479 15.31858825683594 13.91154670715332 C 15.31858539581299 13.91154670715332 15.31858348846436 13.91154670715332 15.31858062744141 13.91154670715332 Z" stroke="none"/>
        <path d="M 8.520885467529297 4.031135559082031 L 3.44636344909668 12.91154670715332 L 13.59540367126465 12.91154670715332 L 8.520885467529297 4.031135559082031 M 8.520880699157715 1.015562057495117 C 8.859027862548828 1.015562057495117 9.197175979614258 1.183516502380371 9.389120101928711 1.519426345825195 L 16.18683052062988 13.41540718078613 C 16.56777000427246 14.08205699920654 16.08641052246094 14.91154670715332 15.31858062744141 14.91154670715332 L 1.723180770874023 14.91154670715332 C 0.9553604125976562 14.91154670715332 0.4739913940429688 14.08205699920654 0.8549404144287109 13.41540718078613 L 7.652640342712402 1.519426345825195 C 7.844585418701172 1.183516502380371 8.182733535766602 1.015562057495117 8.520880699157715 1.015562057495117 Z" stroke="none" fill="#000"/>
      </g>
    </g>
  </g>
</svg>
