<svg xmlns="http://www.w3.org/2000/svg" xmlns:xlink="http://www.w3.org/1999/xlink" width="40.289" height="40.284" viewBox="0 0 40.289 40.284">
  <defs>
    <clipPath id="clip-path">
      <rect id="Rectangle_349" data-name="Rectangle 349" width="40.289" height="40.284" fill="none" stroke="#fff" stroke-width="3"/>
    </clipPath>
  </defs>
  <g id="Groupe_240" data-name="Groupe 240" clip-path="url(#clip-path)">
    <path id="Tracé_751" data-name="Tracé 751" d="M31.088,23.946c-1.151-2.176-5.148-4.535-5.324-4.638a3.176,3.176,0,0,0-1.551-.447,1.93,1.93,0,0,0-1.726.963A19.115,19.115,0,0,1,21,21.467a2.471,2.471,0,0,1-3.608-.361L10.81,14.522a2.48,2.48,0,0,1-.362-3.606,19.306,19.306,0,0,1,1.645-1.488,1.906,1.906,0,0,0,.886-1.144,2.834,2.834,0,0,0-.374-2.139c-.1-.17-2.46-4.167-4.634-5.317a2.828,2.828,0,0,0-3.322.5L3.194,2.782a7.95,7.95,0,0,0-2.477,7.75c.548,2.368,2.145,4.889,4.747,7.49l8.429,8.429c3.294,3.294,6.433,4.964,9.333,4.964h0a8.254,8.254,0,0,0,5.907-2.693l1.454-1.454A2.813,2.813,0,0,0,31.088,23.946Z" transform="translate(4.185 4.185)" fill="none" stroke="#fff" stroke-miterlimit="10" stroke-width="3"/>
  </g>
</svg>
