<svg xmlns="http://www.w3.org/2000/svg" xmlns:xlink="http://www.w3.org/1999/xlink" width="578.573" height="291.898" viewBox="0 0 578.573 291.898">
  <defs>
    <clipPath id="clip-path">
      <rect id="Rectangle_358" data-name="Rectangle 358" width="578.573" height="291.898" fill="none"/>
    </clipPath>
  </defs>
  <g id="Groupe_292" data-name="Groupe 292" transform="translate(0 29)">
    <g id="Groupe_262" data-name="Groupe 262" transform="translate(0 -29)" clip-path="url(#clip-path)">
      <path id="Tracé_764" data-name="Tracé 764" d="M578.421,128.979a40.5,40.5,0,0,0-6.969-19.49,40.441,40.441,0,0,0-8.236-54.619,60.643,60.643,0,0,0-8.159-5.4,73.672,73.672,0,0,0-34.9-9.164c-.338-.007-.773-.009-1.206-.009a70.41,70.41,0,0,0-26.607,5.1c-.691.281-1.365.587-2.043.886l0-.063A44.27,44.27,0,0,0,468.513,6.1,43.634,43.634,0,0,0,446,0c-.6,0-1.213.011-1.825.034a44.021,44.021,0,0,0-18.166,4.727c-.877.447-1.734.927-2.575,1.428H397.345a43.522,43.522,0,0,0-34.326,16.8,78.819,78.819,0,0,0-11.755-5.409A81.212,81.212,0,0,0,323.492,12.7a84.464,84.464,0,0,0-32.8,6.4,83.253,83.253,0,0,0-26.563,17.661,81.9,81.9,0,0,0-17.908,26.534,85.282,85.282,0,0,0,0,64.954A81.966,81.966,0,0,0,262.8,153.4a72.838,72.838,0,0,0-33.4-7.733l-.526,0a70.946,70.946,0,0,0-32.265,7.674,41.584,41.584,0,0,0-41.481-41.179H154.9a41.431,41.431,0,0,0-32.873,16.586,79.166,79.166,0,0,0-11.036-4.924A81.229,81.229,0,0,0,83.7,119.108h0l-.515,0a84.449,84.449,0,0,0-32.755,6.6A83.221,83.221,0,0,0,23.97,143.534,81.915,81.915,0,0,0,6.225,170.179a85.3,85.3,0,0,0,.4,64.95A81.9,81.9,0,0,0,24.7,261.554a83.258,83.258,0,0,0,26.675,17.5,84.354,84.354,0,0,0,32.254,6.194l.592,0a81.205,81.205,0,0,0,27.722-5.053,77.556,77.556,0,0,0,16.253-8.284,41.26,41.26,0,0,0,27.473,10.515h.236a41.185,41.185,0,0,0,28.62-11.723c1.662,1.313,3.371,2.575,5.171,3.738a63.054,63.054,0,0,0,34.82,9.941l.449,0a62.281,62.281,0,0,0,17.461-2.487l3.956-.025,8.071-.05a45.884,45.884,0,0,0,31.293-12.6A71.478,71.478,0,0,0,302,278.48a69.492,69.492,0,0,0,26.414,5.1c.58,0,1.163,0,1.748-.018a73.591,73.591,0,0,0,34.734-9.377,60.667,60.667,0,0,0,5.686-3.65,44.767,44.767,0,0,0,28.665,10.381h.068l.175,0,10.809-.066,27.2-.168,7.926-.048A39.674,39.674,0,0,0,476.6,216.726l-2.557-3.314,17.622-22.886L502.3,176.715a71.041,71.041,0,0,0,16.672,1.961c.428,0,.857,0,1.288-.011a73.551,73.551,0,0,0,34.788-9.159,60.462,60.462,0,0,0,8.164-5.4,40.109,40.109,0,0,0,15.21-35.131" transform="translate(0 0)"/>
      <path id="Tracé_765" data-name="Tracé 765" d="M154.388,52.6a23.318,23.318,0,0,1,7.935-5.792,24.968,24.968,0,0,1,10.315-2.063q9.362,0,14.441,3.65c.05.036.1.073.152.111a20.694,20.694,0,0,0,22.328,1.743l9.894-5.5A41.081,41.081,0,0,0,208.5,29.667,50.9,50.9,0,0,0,192.4,20.224a53.839,53.839,0,0,0-18.488-3.253,57.162,57.162,0,0,0-22.3,4.285,55.913,55.913,0,0,0-17.933,11.9A54.6,54.6,0,0,0,121.7,50.932a55.764,55.764,0,0,0-4.285,21.9,55.748,55.748,0,0,0,4.285,21.9,54.573,54.573,0,0,0,11.982,17.774,55.913,55.913,0,0,0,17.933,11.9,57.162,57.162,0,0,0,22.3,4.285A53.839,53.839,0,0,0,192.4,125.44a50.073,50.073,0,0,0,16.108-9.522,42.126,42.126,0,0,0,10.95-15l-9.86-5.484a20.735,20.735,0,0,0-22.251,1.68l-.1.075q-5.237,3.73-14.6,3.729a25.484,25.484,0,0,1-10.395-2.063,22.281,22.281,0,0,1-7.935-5.792,26,26,0,0,1-5-8.887,35.161,35.161,0,0,1-1.746-11.347,35.171,35.171,0,0,1,1.746-11.347,25.364,25.364,0,0,1,5.078-8.887" transform="translate(148.771 21.504)" fill="#fff"/>
      <rect id="Rectangle_356" data-name="Rectangle 356" width="28.565" height="79.348" transform="translate(430.907 68.468)" fill="#fff"/>
      <path id="Tracé_766" data-name="Tracé 766" d="M198.809,44.1a16.456,16.456,0,0,0,6.389,1.539,16.833,16.833,0,0,0,9.4-2.287,17.29,17.29,0,0,0,6.686-7.182,16.543,16.543,0,0,0,1.786-6.858,16.862,16.862,0,0,0-2.283-9.447,17.391,17.391,0,0,0-6.189-6.189,16.854,16.854,0,0,0-9.427-2.285,16.564,16.564,0,0,0-6.862,1.78,17.3,17.3,0,0,0-7.2,6.695,16.857,16.857,0,0,0-2.285,9.422,16.507,16.507,0,0,0,1.548,6.391,17.18,17.18,0,0,0,8.436,8.422" transform="translate(239.239 14.408)" fill="#fff"/>
      <path id="Tracé_767" data-name="Tracé 767" d="M261.881,83.508a13.752,13.752,0,0,1-8.57,2.777,14.87,14.87,0,0,1-7.855-2.063,14.465,14.465,0,0,1-5.316-5.554,16.346,16.346,0,0,1,0-15.314,14.081,14.081,0,0,1,5.316-5.4,15.345,15.345,0,0,1,7.855-1.984,14.033,14.033,0,0,1,8.57,2.7l.073.054a14.88,14.88,0,0,0,15.913,1.17l13.215-7.1q-5.4-12.218-15.632-17.853a46.525,46.525,0,0,0-22.138-5.792,43.361,43.361,0,0,0-17.219,3.095A41.959,41.959,0,0,0,213,54.784a41.364,41.364,0,0,0,0,32.533,42.41,42.41,0,0,0,9.2,13.489,43.056,43.056,0,0,0,13.886,9.125,42.467,42.467,0,0,0,17.219,3.174,46.525,46.525,0,0,0,22.138-5.792q10.236-5.631,15.632-17.853l-14.038-7.536a13.906,13.906,0,0,0-15.09,1.528l-.073.057" transform="translate(265.67 36.933)" fill="#fff"/>
      <path id="Tracé_768" data-name="Tracé 768" d="M81.616,144.05q-5.213,3.761-14.577,3.818a25.474,25.474,0,0,1-10.406-2,22.268,22.268,0,0,1-7.971-5.743,26.024,26.024,0,0,1-5.053-8.855,37.751,37.751,0,0,1-.141-22.694,25.359,25.359,0,0,1,5.024-8.916,23.324,23.324,0,0,1,7.9-5.845,25.034,25.034,0,0,1,10.3-2.127q9.362-.058,14.464,3.562a26.755,26.755,0,0,1,2.723,2.219,13.447,13.447,0,0,0,15.752,1.764L113.507,91.4A41.044,41.044,0,0,0,102.464,76.4,50.839,50.839,0,0,0,86.3,67.05a53.9,53.9,0,0,0-18.508-3.14,57.194,57.194,0,0,0-22.27,4.423A55.925,55.925,0,0,0,27.664,80.347,54.576,54.576,0,0,0,15.791,98.193a58.124,58.124,0,0,0,.27,43.8,54.551,54.551,0,0,0,12.09,17.7,55.894,55.894,0,0,0,18.005,11.791,57.14,57.14,0,0,0,22.324,4.147,53.836,53.836,0,0,0,18.468-3.364A50.156,50.156,0,0,0,103,162.644a42.14,42.14,0,0,0,10.857-15.065l-13.911-7.626a13.48,13.48,0,0,0-15.7,1.936,26.594,26.594,0,0,1-2.625,2.161" transform="translate(14.751 80.979)" fill="#fff"/>
      <rect id="Rectangle_357" data-name="Rectangle 357" width="28.566" height="115.848" transform="translate(139.948 138.03) rotate(-0.353)" fill="#fff"/>
      <path id="Tracé_769" data-name="Tracé 769" d="M163.052,95.782A40.748,40.748,0,0,0,147.486,80.96a45.564,45.564,0,0,0-22.567-5.334A43.47,43.47,0,0,0,87.2,96.807a39.807,39.807,0,0,0-5.663,21.141A45.745,45.745,0,0,0,86.588,139.1a39.42,39.42,0,0,0,13.741,15.23,36.259,36.259,0,0,0,20.349,5.586q9.359-.058,15.845-3.986a26.14,26.14,0,0,0,5.527-4.473l.036,5.947,26.978-.165-.245-39.833a41.508,41.508,0,0,0-5.767-21.628M138.4,125.375a14.321,14.321,0,0,1-13.124,7.7,14.852,14.852,0,0,1-7.869-2.015,14.458,14.458,0,0,1-5.35-5.518,15.65,15.65,0,0,1-1.95-7.608,15.97,15.97,0,0,1,1.854-7.785,14.5,14.5,0,0,1,5.282-5.588,16.145,16.145,0,0,1,15.79-.1,14.685,14.685,0,0,1,5.271,5.523,15.96,15.96,0,0,1,1.952,7.765,15.629,15.629,0,0,1-1.857,7.629" transform="translate(103.312 95.823)" fill="#fff"/>
      <path id="Tracé_770" data-name="Tracé 770" d="M177.921,129.724a13.749,13.749,0,0,1-8.554,2.832,14.891,14.891,0,0,1-7.867-2.015,14.47,14.47,0,0,1-5.35-5.523,16.348,16.348,0,0,1-.093-15.312,14.049,14.049,0,0,1,5.282-5.43,15.341,15.341,0,0,1,7.842-2.031,14.047,14.047,0,0,1,8.588,2.643l.231.172a13.84,13.84,0,0,0,15,1.367l13.927-7.59q-5.472-12.184-15.74-17.756a46.5,46.5,0,0,0-22.174-5.656,43.389,43.389,0,0,0-17.2,3.2A41.961,41.961,0,0,0,128.866,101.3a41.377,41.377,0,0,0,.2,32.533,42.444,42.444,0,0,0,9.286,13.432,43.1,43.1,0,0,0,13.943,9.039,42.511,42.511,0,0,0,17.237,3.07,46.559,46.559,0,0,0,22.1-5.931q10.2-5.693,15.52-17.949l-14.081-7.45a13.909,13.909,0,0,0-15.083,1.621l-.073.057" transform="translate(159.19 95.566)" fill="#fff"/>
      <path id="Tracé_771" data-name="Tracé 771" d="M256.888,154.635l-33.8.209-18.728,25.507a25.547,25.547,0,0,0-2.258,3.664l-5.5.034-.333-54.1h.011V14.1H167.716V118.684l-.079,0,.714,115.843,28.563-.175-.181-29.676,5.636-.034a28.347,28.347,0,0,0,2.161,3.478l19.2,26.067,33.483-.206L226.47,194.137Z" transform="translate(212.41 17.867)" fill="#fff"/>
      <path id="Tracé_772" data-name="Tracé 772" d="M231.361,91.434,271.8,80.76a8.705,8.705,0,0,1,10.9,7.738l1.17,14.917a8.709,8.709,0,0,1-9.565,9.343l-41.61-4.242a8.708,8.708,0,0,1-1.34-17.082" transform="translate(284.936 101.96)"/>
      <path id="Tracé_773" data-name="Tracé 773" d="M234.621,96.036l40.361,10.977a8.707,8.707,0,0,1,5.573,12.152l-6.445,13.5a8.706,8.706,0,0,1-12.954,3.31L227.24,111.5a8.707,8.707,0,0,1,7.382-15.462" transform="translate(283.355 121.298)"/>
      <path id="Tracé_774" data-name="Tracé 774" d="M232.173,106.814,261.639,136.5a8.7,8.7,0,0,1-1.252,13.31l-12.333,8.472a8.708,8.708,0,0,1-12.872-3.611l-17.132-38.157a8.708,8.708,0,0,1,14.124-9.7" transform="translate(275.318 132.082)"/>
    </g>
  </g>
</svg>
